<?xml version="1.0" encoding="utf-8"?>
<!-- Generator: Adobe Illustrator 27.1.0, SVG Export Plug-In . SVG Version: 6.00 Build 0)  -->
<svg version="1.1" id="Layer_1" xmlns="http://www.w3.org/2000/svg" xmlns:xlink="http://www.w3.org/1999/xlink" x="0px" y="0px"
	 viewBox="0 0 24 24" style="enable-background:new 0 0 24 24;" xml:space="preserve">
<path d="M11.3,18h1.5v-3.2h3.2v-1.5h-3.2v-3.2h-1.5v3.2H8.1v1.5h3.2V18z M5.6,21.8c-0.4,0-0.7-0.1-1-0.4c-0.3-0.3-0.4-0.6-0.4-1V3.7
	c0-0.4,0.1-0.7,0.4-1s0.6-0.4,1-0.4h8.9l5.4,5.4v12.8c0,0.4-0.1,0.7-0.4,1c-0.3,0.3-0.6,0.4-1,0.4H5.6z M13.7,8.2h4.6l-4.6-4.6V8.2z
	"/>
</svg>
