<?xml version="1.0" encoding="iso-8859-1"?>
<!-- Generator: Adobe Illustrator 27.1.0, SVG Export Plug-In . SVG Version: 6.00 Build 0)  -->
<svg version="1.1" id="Layer_1" xmlns="http://www.w3.org/2000/svg" xmlns:xlink="http://www.w3.org/1999/xlink" x="0px" y="0px"
	 viewBox="0 0 24 24" enable-background="new 0 0 24 24" xml:space="preserve">
<g>
	<g>
		<path d="M6.69,20v-2.05h7.64c1.15,0,2.12-0.37,2.94-1.12c0.81-0.74,1.22-1.67,1.22-2.78s-0.41-2.04-1.22-2.78
			c-0.81-0.74-1.79-1.12-2.94-1.12H7.36l2.69,2.67l-1.44,1.44L3.49,9.13L8.62,4l1.44,1.44L7.36,8.1h6.95c1.69,0,3.15,0.57,4.37,1.72
			c1.22,1.15,1.83,2.56,1.83,4.23c0,1.68-0.61,3.09-1.83,4.23C17.46,19.43,16,20,14.31,20H6.69z"/>
	</g>
</g>
</svg>
