<?xml version="1.0" encoding="iso-8859-1"?>
<!-- Generator: Adobe Illustrator 27.1.0, SVG Export Plug-In . SVG Version: 6.00 Build 0)  -->
<svg version="1.1" id="Layer_1" xmlns="http://www.w3.org/2000/svg" xmlns:xlink="http://www.w3.org/1999/xlink" x="0px" y="0px"
	 viewBox="0 0 24 24" enable-background="new 0 0 24 24" xml:space="preserve">
<g>
	<g>
		<path d="M5.84,22c-0.51,0-0.96-0.19-1.34-0.57s-0.57-0.82-0.57-1.34V3.93c0-0.53,0.19-0.99,0.57-1.36S5.32,2,5.84,2h8.54
			l5.69,5.69v12.4c0,0.51-0.19,0.96-0.57,1.34C19.13,21.81,18.67,22,18.14,22H5.84z M11.99,18.16c0.93,0,1.73-0.33,2.39-0.99
			c0.66-0.66,0.99-1.46,0.99-2.39v-3.33H14.4v3.33c0,0.68-0.23,1.25-0.7,1.71c-0.47,0.47-1.04,0.7-1.71,0.7s-1.25-0.23-1.71-0.7
			c-0.47-0.47-0.7-1.04-0.7-1.71V9.53c0-0.29,0.09-0.52,0.28-0.7c0.18-0.18,0.41-0.27,0.69-0.27c0.29,0,0.52,0.09,0.7,0.27
			c0.18,0.18,0.27,0.41,0.27,0.7v4.78h0.97V9.53c0-0.55-0.18-1.01-0.55-1.38c-0.37-0.37-0.83-0.55-1.38-0.55
			c-0.55,0-1.01,0.18-1.38,0.55C8.8,8.52,8.61,8.98,8.61,9.53v5.26c0,0.93,0.33,1.73,0.99,2.39C10.26,17.83,11.06,18.16,11.99,18.16
			z M13.77,8.3h4.37l-4.37-4.37V8.3z"/>
	</g>
</g>
</svg>
