<?xml version="1.0" encoding="iso-8859-1"?>
<!-- Generator: Adobe Illustrator 27.1.0, SVG Export Plug-In . SVG Version: 6.00 Build 0)  -->
<svg version="1.1" id="Layer_1" xmlns="http://www.w3.org/2000/svg" xmlns:xlink="http://www.w3.org/1999/xlink" x="0px" y="0px"
	 viewBox="0 0 24 24" enable-background="new 0 0 24 24" xml:space="preserve">
<g>
	<g>
		<path d="M3.7,19.06v-1.9h2.14v-7.01c0-1.43,0.41-2.71,1.24-3.84s1.93-1.85,3.31-2.16V3.52c0-0.43,0.16-0.8,0.47-1.08
			S11.55,2,11.99,2c0.43,0,0.81,0.14,1.12,0.43c0.31,0.29,0.47,0.65,0.47,1.08v0.63c1.38,0.31,2.49,1.02,3.34,2.16
			c0.84,1.13,1.27,2.41,1.27,3.84v7.01h2.12v1.9L3.7,19.06z M11.99,22c-0.55,0-1.02-0.2-1.43-0.6c-0.41-0.4-0.61-0.88-0.61-1.42h4.1
			c0,0.56-0.2,1.04-0.6,1.43C13.03,21.8,12.55,22,11.99,22z"/>
	</g>
</g>
</svg>
