<?xml version="1.0" encoding="iso-8859-1"?>
<!-- Generator: Adobe Illustrator 27.1.0, SVG Export Plug-In . SVG Version: 6.00 Build 0)  -->
<svg version="1.1" id="Layer_1" xmlns="http://www.w3.org/2000/svg" xmlns:xlink="http://www.w3.org/1999/xlink" x="0px" y="0px"
	 viewBox="0 0 24 24" enable-background="new 0 0 24 24" xml:space="preserve">
<g>
	<g>
		<path d="M14.69,11.46L9.91,6.7c0.27-0.16,0.59-0.31,0.95-0.45c0.36-0.14,0.74-0.21,1.12-0.21c0.97,0,1.77,0.33,2.41,0.98
			s0.97,1.46,0.97,2.42c0,0.39-0.06,0.78-0.18,1.18C15.06,11.04,14.9,11.31,14.69,11.46z M5.84,17.34c1.01-0.63,1.99-1.11,2.94-1.45
			s2.02-0.51,3.21-0.51c0.56,0,1.1,0.04,1.6,0.12c0.51,0.08,0.91,0.18,1.22,0.31l-3.02-3.02c-0.92-0.03-1.65-0.33-2.21-0.88
			c-0.55-0.55-0.86-1.26-0.9-2.11L5.69,6.83C5.11,7.56,4.67,8.36,4.36,9.2c-0.31,0.84-0.46,1.78-0.46,2.81
			c0,0.95,0.15,1.86,0.46,2.73C4.67,15.61,5.16,16.48,5.84,17.34z M18.33,17.17c0.53-0.63,0.95-1.38,1.27-2.26
			c0.31-0.88,0.47-1.85,0.47-2.91c0-2.43-0.74-4.38-2.22-5.86c-1.48-1.48-3.43-2.22-5.86-2.22c-1.09,0-2.06,0.16-2.9,0.47
			C8.26,4.71,7.5,5.14,6.83,5.67L18.33,17.17z M11.99,22c-1.4,0-2.71-0.26-3.92-0.77C6.85,20.71,5.8,20.01,4.9,19.1
			c-0.9-0.9-1.61-1.96-2.12-3.17S2,13.41,2,12.01s0.26-2.71,0.77-3.92s1.22-2.27,2.11-3.17s1.95-1.61,3.16-2.14
			C9.26,2.26,10.56,2,11.96,2c1.42,0,2.73,0.26,3.94,0.78c1.21,0.52,2.27,1.23,3.17,2.14c0.9,0.9,1.61,1.96,2.14,3.17
			C21.74,9.31,22,10.61,22,12.01s-0.26,2.71-0.78,3.92c-0.52,1.21-1.23,2.27-2.14,3.17c-0.9,0.9-1.96,1.61-3.17,2.12
			C14.69,21.74,13.39,22,11.99,22z"/>
	</g>
</g>
</svg>
