<?xml version="1.0" encoding="iso-8859-1"?>
<!-- Generator: Adobe Illustrator 27.1.0, SVG Export Plug-In . SVG Version: 6.00 Build 0)  -->
<svg version="1.1" id="Layer_1" xmlns="http://www.w3.org/2000/svg" xmlns:xlink="http://www.w3.org/1999/xlink" x="0px" y="0px"
	 viewBox="0 0 24 24" enable-background="new 0 0 24 24" xml:space="preserve">
<g>
	<g>
		<path d="M4.87,22c-0.51,0-0.96-0.19-1.34-0.57c-0.38-0.38-0.57-0.82-0.57-1.34V5.38c0-0.53,0.19-0.99,0.57-1.36
			c0.38-0.38,0.82-0.57,1.34-0.57h1.45V2h1.81v1.45h7.72V2h1.81v1.45h1.45c0.53,0,0.99,0.19,1.36,0.57
			c0.38,0.38,0.57,0.83,0.57,1.36v14.72c0,0.51-0.19,0.96-0.57,1.34C20.09,21.81,19.64,22,19.1,22H4.87z M4.87,20.09H19.1V9.84H4.87
			V20.09z"/>
	</g>
</g>
</svg>
