<?xml version="1.0" encoding="iso-8859-1"?>
<!-- Generator: Adobe Illustrator 27.1.0, SVG Export Plug-In . SVG Version: 6.00 Build 0)  -->
<svg version="1.1" id="Layer_1" xmlns="http://www.w3.org/2000/svg" xmlns:xlink="http://www.w3.org/1999/xlink" x="0px" y="0px"
	 viewBox="0 0 24 24" enable-background="new 0 0 24 24" xml:space="preserve">
<g>
	<g>
		<path d="M10.54,16.6l6.97-6.97l-1.38-1.38l-5.6,5.6l-2.77-2.77l-1.35,1.38L10.54,16.6z M11.99,22c-1.37,0-2.66-0.26-3.87-0.78
			c-1.21-0.52-2.28-1.24-3.18-2.15c-0.91-0.91-1.62-1.97-2.15-3.17S2,13.4,2,12.01s0.26-2.68,0.78-3.9s1.23-2.27,2.14-3.17
			S6.88,3.33,8.09,2.8S10.6,2,11.99,2s2.69,0.27,3.91,0.8s2.28,1.24,3.17,2.14c0.89,0.89,1.6,1.95,2.14,3.16s0.8,2.52,0.8,3.92
			c0,1.38-0.27,2.68-0.8,3.9s-1.25,2.27-2.15,3.17c-0.9,0.9-1.95,1.61-3.16,2.14S13.39,22,11.99,22z"/>
	</g>
</g>
</svg>
