<?xml version="1.0" encoding="utf-8"?>
<!-- Generator: Adobe Illustrator 27.1.0, SVG Export Plug-In . SVG Version: 6.00 Build 0)  -->
<svg version="1.1" id="Layer_1" xmlns="http://www.w3.org/2000/svg" xmlns:xlink="http://www.w3.org/1999/xlink" x="0px" y="0px"
	 viewBox="0 0 24 24" enable-background="new 0 0 24 24" xml:space="preserve">
<g>
	<g>
		<g>
			<path d="M0.86,13c0.11-0.45,0.18-0.93,0.35-1.36c0.71-1.76,2.01-2.82,3.89-3.17c0.67-0.12,1.33-0.09,1.98,0.07
				C7.2,8.57,7.27,8.55,7.33,8.43c0.77-1.57,2.01-2.55,3.74-2.83c1.67-0.28,3.13,0.2,4.34,1.38c0.18,0.18,0.31,0.23,0.57,0.14
				c2.56-0.85,5.15,1.42,4.65,4.07c-0.03,0.16,0,0.23,0.16,0.28c1.52,0.56,2.51,2.14,2.33,3.72c-0.19,1.72-1.46,3.04-3.14,3.26
				c-0.19,0.03-0.39,0.04-0.59,0.04c-4.46,0-8.92,0.01-13.38,0c-2.17-0.01-3.75-1.01-4.7-2.97c-0.21-0.44-0.28-0.94-0.42-1.41
				c-0.02-0.08-0.03-0.15-0.05-0.23C0.86,13.58,0.86,13.29,0.86,13z"/>
		</g>
	</g>
</g>
</svg>
