<?xml version="1.0" encoding="iso-8859-1"?>
<!-- Generator: Adobe Illustrator 27.1.0, SVG Export Plug-In . SVG Version: 6.00 Build 0)  -->
<svg version="1.1" id="Layer_1" xmlns="http://www.w3.org/2000/svg" xmlns:xlink="http://www.w3.org/1999/xlink" x="0px" y="0px"
	 viewBox="0 0 24 24" enable-background="new 0 0 24 24" xml:space="preserve">
<g>
	<g>
		<path d="M12,15.75c1.04,0,1.93-0.36,2.66-1.09c0.73-0.73,1.09-1.62,1.09-2.66s-0.36-1.93-1.09-2.66C13.93,8.61,13.04,8.25,12,8.25
			s-1.93,0.36-2.66,1.09C8.61,10.07,8.25,10.96,8.25,12s0.36,1.93,1.09,2.66C10.07,15.39,10.96,15.75,12,15.75z M12,14.27
			c-0.63,0-1.17-0.22-1.61-0.66C9.95,13.17,9.73,12.63,9.73,12c0-0.63,0.22-1.17,0.66-1.61c0.44-0.44,0.98-0.66,1.61-0.66
			c0.63,0,1.17,0.22,1.61,0.66c0.44,0.44,0.66,0.98,0.66,1.61c0,0.63-0.22,1.17-0.66,1.61C13.17,14.05,12.63,14.27,12,14.27z
			 M12,18.91c-2.22,0-4.22-0.64-6-1.92C4.21,15.71,2.88,14.05,2,12c0.88-2.05,2.21-3.71,4-4.99s3.78-1.92,6-1.92s4.22,0.64,6,1.92
			c1.78,1.28,3.11,2.94,4,4.99c-0.88,2.05-2.21,3.71-4,4.99C16.22,18.27,14.22,18.91,12,18.91z"/>
	</g>
</g>
</svg>
