<?xml version="1.0" encoding="iso-8859-1"?>
<!-- Generator: Adobe Illustrator 27.1.0, SVG Export Plug-In . SVG Version: 6.00 Build 0)  -->
<svg version="1.1" id="Layer_1" xmlns="http://www.w3.org/2000/svg" xmlns:xlink="http://www.w3.org/1999/xlink" x="0px" y="0px"
	 viewBox="0 0 24 24" enable-background="new 0 0 24 24" xml:space="preserve">
<g>
	<g>
		<path d="M19.31,20.96l-3.53-3.49c-0.52,0.21-1.1,0.37-1.75,0.49c-0.65,0.12-1.33,0.18-2.02,0.18c-2.19,0-4.19-0.62-5.99-1.85
			S2.87,13.36,2,11.23c0.28-0.75,0.69-1.5,1.23-2.25S4.39,7.5,5.11,6.81L2.38,4.1l1.04-1.06L20.26,19.9L19.31,20.96z M12,14.98
			c0.18,0,0.37-0.02,0.57-0.06c0.21-0.04,0.38-0.08,0.53-0.14l-4.68-4.66c-0.06,0.16-0.1,0.34-0.13,0.53
			c-0.03,0.19-0.04,0.38-0.04,0.57c0,1.06,0.37,1.95,1.1,2.67S10.97,14.98,12,14.98z M18.45,15.97l-3.11-3.11
			c0.13-0.21,0.24-0.46,0.31-0.76c0.07-0.3,0.11-0.59,0.11-0.87c0-1.04-0.36-1.93-1.09-2.66C13.93,7.84,13.04,7.47,12,7.47
			c-0.28,0-0.56,0.03-0.85,0.1c-0.29,0.07-0.55,0.17-0.78,0.3L7.72,5.2C8.23,4.97,8.9,4.76,9.73,4.58c0.82-0.18,1.62-0.26,2.38-0.26
			c2.13,0,4.1,0.61,5.91,1.84s3.13,2.92,3.98,5.07c-0.37,0.96-0.86,1.84-1.48,2.64C19.9,14.67,19.21,15.37,18.45,15.97z
			 M13.96,11.47L11.69,9.2c0.29-0.13,0.61-0.18,0.95-0.13c0.34,0.04,0.64,0.18,0.91,0.42c0.25,0.26,0.42,0.55,0.52,0.86
			C14.16,10.65,14.13,11.03,13.96,11.47z"/>
	</g>
</g>
</svg>
