<?xml version="1.0" encoding="utf-8"?>
<!-- Generator: Adobe Illustrator 27.1.0, SVG Export Plug-In . SVG Version: 6.00 Build 0)  -->
<svg version="1.1" id="Layer_1" xmlns="http://www.w3.org/2000/svg" xmlns:xlink="http://www.w3.org/1999/xlink" x="0px" y="0px"
	 viewBox="0 0 24 24" enable-background="new 0 0 24 24" xml:space="preserve">
<g>
	<g>
		<path d="M7.98,16.89h8.01v-0.53c0-0.69-0.35-1.23-1.05-1.62s-1.68-0.58-2.96-0.58c-1.25,0-2.24,0.19-2.94,0.58
			c-0.71,0.39-1.06,0.92-1.06,1.62V16.89z M11.99,12.54c0.51,0,0.95-0.18,1.3-0.54c0.35-0.36,0.53-0.79,0.53-1.29
			c0-0.51-0.18-0.95-0.53-1.31c-0.35-0.36-0.79-0.54-1.3-0.54c-0.51,0-0.95,0.18-1.3,0.54c-0.35,0.36-0.53,0.79-0.53,1.29
			c0,0.51,0.18,0.95,0.53,1.31C11.04,12.36,11.47,12.54,11.99,12.54z M3.91,21.11c-0.51,0-0.96-0.19-1.34-0.57
			C2.19,20.16,2,19.72,2,19.2V7.07C2,6.55,2.19,6.1,2.57,5.72c0.38-0.39,0.82-0.58,1.34-0.58h3.35l1.91-2.24h5.67l1.88,2.24h3.35
			c0.51,0,0.97,0.19,1.35,0.58C21.81,6.1,22,6.55,22,7.07V19.2c0,0.51-0.19,0.96-0.58,1.34c-0.39,0.38-0.84,0.57-1.35,0.57H3.91z"/>
	</g>
</g>
</svg>
