<?xml version="1.0" encoding="iso-8859-1"?>
<!-- Generator: Adobe Illustrator 27.1.0, SVG Export Plug-In . SVG Version: 6.00 Build 0)  -->
<svg version="1.1" id="Layer_1" xmlns="http://www.w3.org/2000/svg" xmlns:xlink="http://www.w3.org/1999/xlink" x="0px" y="0px"
	 viewBox="0 0 24 24" enable-background="new 0 0 24 24" xml:space="preserve">
<g>
	<g>
		<path d="M4.9,21c-0.51,0-0.96-0.19-1.33-0.56C3.19,20.06,3,19.61,3,19.1V4.92c0-0.53,0.19-0.98,0.56-1.36S4.39,3,4.9,3h14.18
			c0.53,0,0.98,0.19,1.36,0.56S21,4.39,21,4.92V19.1c0,0.51-0.19,0.96-0.56,1.33C20.06,20.81,19.61,21,19.08,21H4.9z M5.96,17.01
			h12.09l-3.7-5.02l-3.17,4.11l-2.23-3.05L5.96,17.01z"/>
	</g>
</g>
</svg>
