<?xml version="1.0" encoding="iso-8859-1"?>
<!-- Generator: Adobe Illustrator 27.1.0, SVG Export Plug-In . SVG Version: 6.00 Build 0)  -->
<svg version="1.1" id="Layer_1" xmlns="http://www.w3.org/2000/svg" xmlns:xlink="http://www.w3.org/1999/xlink" x="0px" y="0px"
	 viewBox="0 0 24 24" enable-background="new 0 0 24 24" xml:space="preserve">
<path d="M11.32,17h1.5v-6h-1.5V17z M12,9.15c0.23,0,0.43-0.07,0.59-0.23s0.24-0.34,0.24-0.57c0-0.23-0.08-0.43-0.24-0.6
	C12.43,7.58,12.23,7.5,12,7.5s-0.43,0.08-0.59,0.25s-0.24,0.37-0.24,0.6s0.08,0.43,0.24,0.57C11.57,9.08,11.77,9.15,12,9.15z M12,22
	c-1.37,0-2.66-0.26-3.88-0.79c-1.22-0.52-2.28-1.24-3.19-2.15s-1.62-1.97-2.15-3.19S2,13.36,2,11.98c0-1.37,0.26-2.66,0.79-3.88
	s1.24-2.27,2.15-3.18s1.97-1.61,3.19-2.14S10.64,2,12.02,2c1.37,0,2.66,0.26,3.88,0.79s2.28,1.24,3.17,2.14
	c0.9,0.9,1.61,1.96,2.14,3.18C21.74,9.32,22,10.62,22,12c0,1.37-0.26,2.66-0.79,3.88c-0.52,1.22-1.24,2.28-2.14,3.19
	c-0.9,0.91-1.96,1.62-3.18,2.15C14.68,21.74,13.38,22,12,22z"/>
</svg>
