<?xml version="1.0" encoding="iso-8859-1"?>
<!-- Generator: Adobe Illustrator 27.1.0, SVG Export Plug-In . SVG Version: 6.00 Build 0)  -->
<svg version="1.1" id="Layer_1" xmlns="http://www.w3.org/2000/svg" xmlns:xlink="http://www.w3.org/1999/xlink" x="0px" y="0px"
	 viewBox="0 0 24 24" enable-background="new 0 0 24 24" xml:space="preserve">
<g>
	<g>
		<path d="M7.58,17.58c-1.55,0-2.86-0.54-3.95-1.63C2.54,14.86,2,13.55,2,12s0.54-2.86,1.63-3.95s2.41-1.63,3.95-1.63
			c1.35,0,2.49,0.37,3.4,1.11c0.91,0.74,1.55,1.62,1.92,2.64H22v3.66h-2.34v3.6h-3.07v-3.6h-3.69c-0.37,1.02-1.01,1.89-1.92,2.64
			C10.07,17.21,8.94,17.58,7.58,17.58z M7.58,13.63c0.47,0,0.86-0.15,1.17-0.46s0.46-0.7,0.46-1.17c0-0.47-0.15-0.86-0.46-1.17
			c-0.31-0.31-0.7-0.46-1.17-0.46c-0.46,0-0.84,0.15-1.16,0.46c-0.32,0.31-0.47,0.7-0.47,1.17c0,0.46,0.15,0.84,0.46,1.16
			C6.72,13.48,7.11,13.63,7.58,13.63z"/>
	</g>
</g>
</svg>
