<?xml version="1.0" encoding="utf-8"?>
<!-- Generator: Adobe Illustrator 27.1.0, SVG Export Plug-In . SVG Version: 6.00 Build 0)  -->
<svg version="1.1" id="Layer_1" xmlns="http://www.w3.org/2000/svg" xmlns:xlink="http://www.w3.org/1999/xlink" x="0px" y="0px"
	 viewBox="0 0 24 24" enable-background="new 0 0 24 24" xml:space="preserve">
<g>
	<g>
		<g>
			<path d="M12.43,1.19c0.43,0.07,0.86,0.12,1.28,0.22c1.29,0.3,2.4,0.94,3.34,1.87c1.03,1.03,1.69,2.27,1.98,3.7
				c0.27,1.31,0.09,2.54-0.55,3.73c-0.72,1.36-1.65,2.56-2.67,3.7c-0.31,0.35-0.63,0.7-0.97,1.03c-0.33,0.32-0.49,0.73-0.63,1.15
				c-0.02,0.07-0.01,0.15-0.01,0.23c0,0.59,0,1.18,0,1.78c-1.46,0-2.92,0-4.4,0c0-0.12,0-0.25,0-0.37c0-0.5,0.04-1,0-1.5
				c-0.03-0.45-0.23-0.86-0.54-1.18c-1.02-1.06-2-2.14-2.83-3.35c-0.58-0.84-1.09-1.7-1.4-2.68c-0.23-0.74-0.22-1.5-0.1-2.25
				c0.32-2.03,1.34-3.63,3.02-4.81c1.03-0.73,2.19-1.14,3.45-1.24c0.06-0.01,0.12-0.02,0.18-0.03C11.86,1.19,12.14,1.19,12.43,1.19z
				"/>
			<path d="M14.19,20.49c0.07,0.77-0.05,1.46-0.7,1.95c-0.28,0.21-0.6,0.34-0.95,0.35c-0.4,0.01-0.8,0.02-1.2-0.02
				c-0.77-0.08-1.39-0.69-1.51-1.46c-0.04-0.27-0.03-0.54-0.04-0.83C11.27,20.49,12.72,20.49,14.19,20.49z"/>
			<path d="M9.81,19.69c0-0.1,0-0.19,0-0.29c1.46,0,2.92,0,4.39,0c0,0.1,0,0.19,0,0.29C12.74,19.69,11.29,19.69,9.81,19.69z"/>
		</g>
	</g>
</g>
</svg>
