<?xml version="1.0" encoding="iso-8859-1"?>
<!-- Generator: Adobe Illustrator 27.1.0, SVG Export Plug-In . SVG Version: 6.00 Build 0)  -->
<svg version="1.1" id="Layer_1" xmlns="http://www.w3.org/2000/svg" xmlns:xlink="http://www.w3.org/1999/xlink" x="0px" y="0px"
	 viewBox="0 0 24 24" enable-background="new 0 0 24 24" xml:space="preserve">
<g>
	<g>
		<path d="M11.12,17.17H7.16c-1.43,0-2.65-0.5-3.66-1.51C2.5,14.66,2,13.44,2,12.01s0.5-2.65,1.51-3.67s2.22-1.52,3.66-1.52h3.96
			v1.93H7.16c-0.9,0-1.67,0.31-2.3,0.94s-0.95,1.4-0.95,2.32c0,0.9,0.32,1.67,0.95,2.3c0.64,0.64,1.4,0.95,2.3,0.95h3.96V17.17z
			 M8.01,12.81v-1.59h7.96v1.59H8.01z M12.86,17.17v-1.91h3.96c0.9,0,1.67-0.31,2.3-0.94c0.64-0.63,0.95-1.4,0.95-2.32
			c0-0.9-0.32-1.67-0.95-2.3c-0.64-0.64-1.4-0.95-2.3-0.95h-3.96V6.83h3.96c1.43,0,2.65,0.51,3.67,1.52
			C21.49,9.36,22,10.58,22,12.01s-0.51,2.65-1.52,3.66c-1.01,1.01-2.24,1.51-3.67,1.51H12.86z"/>
	</g>
</g>
</svg>
