<?xml version="1.0" encoding="iso-8859-1"?>
<!-- Generator: Adobe Illustrator 27.1.0, SVG Export Plug-In . SVG Version: 6.00 Build 0)  -->
<svg version="1.1" id="Layer_1" xmlns="http://www.w3.org/2000/svg" xmlns:xlink="http://www.w3.org/1999/xlink" x="0px" y="0px"
	 viewBox="0 0 24 24" enable-background="new 0 0 24 24" xml:space="preserve">
<g>
	<g>
		<path d="M2,18.06v-2.09h15.08v2.09H2z M2,13.06v-2.12h15.08v2.12H2z M2,8.03V5.94h15.08v2.09H2z M20.94,18.06
			c-0.3,0-0.55-0.1-0.75-0.3c-0.2-0.2-0.3-0.45-0.3-0.75s0.1-0.55,0.3-0.74c0.2-0.19,0.45-0.29,0.75-0.29c0.3,0,0.55,0.1,0.75,0.3
			c0.2,0.2,0.3,0.45,0.3,0.75c0,0.3-0.11,0.55-0.32,0.74C21.47,17.96,21.22,18.06,20.94,18.06z M20.94,13.06
			c-0.3,0-0.55-0.1-0.75-0.3c-0.2-0.2-0.3-0.45-0.3-0.75c0-0.3,0.1-0.55,0.3-0.75c0.2-0.2,0.45-0.3,0.75-0.3
			c0.3,0,0.55,0.1,0.75,0.3C21.9,11.45,22,11.7,22,12c0,0.3-0.11,0.55-0.32,0.75C21.47,12.96,21.22,13.06,20.94,13.06z M20.94,8.03
			c-0.3,0-0.55-0.1-0.75-0.3c-0.2-0.2-0.3-0.45-0.3-0.75c0-0.3,0.1-0.55,0.3-0.74c0.2-0.19,0.45-0.29,0.75-0.29
			c0.3,0,0.55,0.1,0.75,0.3C21.9,6.45,22,6.7,22,7c0,0.3-0.11,0.55-0.32,0.74C21.47,7.93,21.22,8.03,20.94,8.03z"/>
	</g>
</g>
</svg>
