<?xml version="1.0" encoding="iso-8859-1"?>
<!-- Generator: Adobe Illustrator 27.1.0, SVG Export Plug-In . SVG Version: 6.00 Build 0)  -->
<svg version="1.1" id="Layer_1" xmlns="http://www.w3.org/2000/svg" xmlns:xlink="http://www.w3.org/1999/xlink" x="0px" y="0px"
	 viewBox="0 0 24 24" enable-background="new 0 0 24 24" xml:space="preserve">
<path d="M19.37,14.12c-0.95,3.23-4.01,5.56-7.6,5.37c-3.84-0.2-6.98-3.43-7.09-7.27C4.56,7.98,7.96,4.5,12.18,4.5
	c0.97,0,1.9,0.18,2.75,0.52c0.52,0.2,1.1,0.05,1.44-0.39l0,0C16.88,3.96,16.6,3,15.82,2.69c-1.75-0.69-3.73-0.91-5.8-0.46
	c-3.9,0.83-6.98,4.02-7.68,7.94C1.22,16.5,6.06,22,12.18,22c4.56,0,8.39-3.05,9.6-7.22c0.2-0.68-0.23-1.38-0.92-1.55h0
	C20.2,13.07,19.56,13.47,19.37,14.12z"/>
</svg>
