<?xml version="1.0" encoding="utf-8"?>
<!-- Generator: Adobe Illustrator 27.1.0, SVG Export Plug-In . SVG Version: 6.00 Build 0)  -->
<svg version="1.1" id="Layer_1" xmlns="http://www.w3.org/2000/svg" xmlns:xlink="http://www.w3.org/1999/xlink" x="0px" y="0px"
	 viewBox="0 0 24 24" enable-background="new 0 0 24 24" xml:space="preserve">
<g>
	<g>
		<path d="M3.91,20.07c-0.51,0-0.96-0.19-1.34-0.57S2,18.68,2,18.16V5.86C2,5.33,2.19,4.87,2.57,4.5s0.82-0.57,1.34-0.57h16.16
			c0.53,0,0.99,0.19,1.36,0.57S22,5.33,22,5.86v12.3c0,0.51-0.19,0.96-0.57,1.34s-0.83,0.57-1.36,0.57H3.91z M11.99,12.88l8.08-5.38
			V5.86l-8.08,5.26L3.91,5.86V7.5L11.99,12.88z"/>
	</g>
</g>
</svg>
