<?xml version="1.0" encoding="utf-8"?>
<!-- Generator: Adobe Illustrator 27.1.0, SVG Export Plug-In . SVG Version: 6.00 Build 0)  -->
<svg version="1.1" id="Layer_1" xmlns="http://www.w3.org/2000/svg" xmlns:xlink="http://www.w3.org/1999/xlink" x="0px" y="0px"
	 viewBox="0 0 24 24" enable-background="new 0 0 24 24" xml:space="preserve">
<g>
	<g>
		<g>
			<path d="M11.74,21.38c-0.27-0.1-0.56-0.17-0.81-0.31c-0.81-0.48-1.17-1.45-0.89-2.35c0.28-0.88,1.13-1.48,2.03-1.44
				c0.95,0.05,1.74,0.72,1.93,1.63c0.23,1.12-0.51,2.23-1.65,2.43c-0.03,0.01-0.07,0.02-0.1,0.03
				C12.09,21.38,11.91,21.38,11.74,21.38z"/>
			<path d="M11.99,14.16c-1.13,0-2.05-0.93-2.04-2.06c0.01-1.12,0.93-2.04,2.05-2.04c1.12,0,2.05,0.93,2.05,2.05
				C14.05,13.24,13.12,14.16,11.99,14.16z"/>
			<path d="M12,2.62c1.13,0,2.05,0.93,2.05,2.05c0,1.12-0.94,2.05-2.06,2.04c-1.12-0.01-2.04-0.93-2.04-2.05
				C9.95,3.55,10.88,2.62,12,2.62z"/>
		</g>
	</g>
</g>
</svg>
