<?xml version="1.0" encoding="utf-8"?>
<!-- Generator: Adobe Illustrator 27.1.0, SVG Export Plug-In . SVG Version: 6.00 Build 0)  -->
<svg version="1.1" id="Layer_1" xmlns="http://www.w3.org/2000/svg" xmlns:xlink="http://www.w3.org/1999/xlink" x="0px" y="0px"
	 viewBox="0 0 24 24" enable-background="new 0 0 24 24" xml:space="preserve">
<g>
	<g>
		<g>
			<path d="M2.62,11.74c0.1-0.27,0.17-0.56,0.31-0.81c0.48-0.81,1.45-1.17,2.35-0.89c0.88,0.28,1.48,1.13,1.44,2.03
				C6.67,13.03,6,13.82,5.08,14.01c-1.12,0.23-2.23-0.51-2.43-1.65c-0.01-0.03-0.02-0.07-0.03-0.1C2.62,12.09,2.62,11.91,2.62,11.74
				z"/>
			<path d="M9.84,11.99c0-1.13,0.93-2.05,2.06-2.04c1.12,0.01,2.04,0.93,2.04,2.05c0,1.12-0.93,2.05-2.05,2.05
				C10.76,14.05,9.84,13.12,9.84,11.99z"/>
			<path d="M21.38,12c0,1.13-0.93,2.05-2.05,2.05c-1.12,0-2.05-0.94-2.04-2.06c0.01-1.12,0.93-2.04,2.05-2.04
				C20.45,9.95,21.38,10.88,21.38,12z"/>
		</g>
	</g>
</g>
</svg>
