<?xml version="1.0" encoding="utf-8"?>
<!-- Generator: Adobe Illustrator 27.1.0, SVG Export Plug-In . SVG Version: 6.00 Build 0)  -->
<svg version="1.1" id="Layer_1" xmlns="http://www.w3.org/2000/svg" xmlns:xlink="http://www.w3.org/1999/xlink" x="0px" y="0px"
	 viewBox="0 0 24 24" enable-background="new 0 0 24 24" xml:space="preserve">
<g>
	<g>
		<path d="M11.99,22c-1.38,0-2.68-0.26-3.9-0.78c-1.21-0.52-2.27-1.24-3.17-2.15c-0.9-0.91-1.61-1.97-2.14-3.18S2,13.37,2,11.99
			c0-1.37,0.26-2.66,0.78-3.87s1.23-2.27,2.14-3.17S6.88,3.33,8.09,2.8S10.6,2,11.99,2s2.68,0.27,3.9,0.8s2.27,1.25,3.17,2.15
			s1.62,1.96,2.15,3.17c0.53,1.21,0.8,2.51,0.8,3.87c0,1.38-0.26,2.69-0.78,3.91c-0.52,1.22-1.24,2.28-2.15,3.18
			c-0.91,0.9-1.97,1.61-3.18,2.14C14.67,21.74,13.37,22,11.99,22z M11.99,20.09c2.25,0,4.16-0.78,5.73-2.35
			c1.57-1.57,2.35-3.49,2.35-5.75c0-0.92-0.15-1.81-0.46-2.67c-0.31-0.86-0.74-1.64-1.3-2.33L6.97,18.31
			c0.69,0.6,1.47,1.04,2.34,1.34C10.18,19.95,11.07,20.09,11.99,20.09z M5.69,17.01L16.98,5.69c-0.71-0.58-1.49-1.02-2.34-1.31
			s-1.74-0.45-2.65-0.45c-2.25,0-4.16,0.78-5.73,2.34s-2.35,3.47-2.35,5.72c0,0.92,0.16,1.81,0.48,2.67
			C4.71,15.51,5.14,16.3,5.69,17.01z"/>
	</g>
</g>
</svg>
