<?xml version="1.0" encoding="iso-8859-1"?>
<!-- Generator: Adobe Illustrator 27.1.0, SVG Export Plug-In . SVG Version: 6.00 Build 0)  -->
<svg version="1.1" id="Layer_1" xmlns="http://www.w3.org/2000/svg" xmlns:xlink="http://www.w3.org/1999/xlink" x="0px" y="0px"
	 viewBox="0 0 24 24" enable-background="new 0 0 24 24" xml:space="preserve">
<g>
	<g>
		<g>
			<path d="M16.23,12.12c-2.72,0-4.92,2.2-4.92,4.92s2.2,4.92,4.92,4.92s4.92-2.2,4.92-4.92S18.94,12.12,16.23,12.12z M18.36,18.49
				l-0.7,0.7l-1.45-1.45l-1.45,1.45l-0.7-0.7l1.45-1.45l-1.45-1.45l0.7-0.7l1.45,1.45l1.45-1.45l0.7,0.7l-1.45,1.45L18.36,18.49z"/>
		</g>
	</g>
	<path d="M10.83,20.5H4.35v-9.62v-0.1V8.15V3.5h8.27v4.65h4.73v2.72c0.27,0.05,0.52,0.12,0.77,0.2c0.25,0.08,0.49,0.17,0.73,0.27
		V7.47L13.38,2H4.35C3.95,2,3.6,2.15,3.3,2.45C3,2.75,2.85,3.1,2.85,3.5v17c0,0.4,0.15,0.75,0.45,1.05C3.6,21.85,3.95,22,4.35,22
		h7.8c-0.27-0.22-0.51-0.45-0.72-0.7C11.21,21.05,11.01,20.78,10.83,20.5z"/>
	<path d="M6.83,16.25v1.5H9.9c-0.03-0.23-0.05-0.48-0.04-0.74c0.01-0.26,0.03-0.51,0.06-0.76H6.83z"/>
	<path d="M11.68,12.7c0.25-0.25,0.52-0.48,0.8-0.7H6.83v1.5H11C11.2,13.22,11.43,12.95,11.68,12.7z"/>
</g>
</svg>
