<?xml version="1.0" encoding="iso-8859-1"?>
<!-- Generator: Adobe Illustrator 27.1.0, SVG Export Plug-In . SVG Version: 6.00 Build 0)  -->
<svg version="1.1" id="Layer_1" xmlns="http://www.w3.org/2000/svg" xmlns:xlink="http://www.w3.org/1999/xlink" x="0px" y="0px"
	 viewBox="0 0 24 24" enable-background="new 0 0 24 24" xml:space="preserve">
<g>
	<g>
		<path d="M12,11.81c0.49,0,0.9-0.17,1.25-0.52c0.35-0.35,0.52-0.77,0.52-1.25s-0.17-0.9-0.52-1.25C12.9,8.43,12.49,8.25,12,8.25
			s-0.9,0.17-1.25,0.52c-0.35,0.35-0.52,0.77-0.52,1.25s0.17,0.9,0.52,1.25C11.1,11.63,11.51,11.81,12,11.81z M12,22
			c-2.69-2.29-4.7-4.41-6.03-6.36s-2-3.76-2-5.41c0-2.5,0.81-4.49,2.42-5.99S9.88,2,12,2s3.99,0.75,5.61,2.24s2.42,3.49,2.42,5.99
			c0,1.65-0.67,3.46-2,5.41C16.7,17.59,14.69,19.71,12,22z"/>
	</g>
</g>
</svg>
