<?xml version="1.0" encoding="iso-8859-1"?>
<!-- Generator: Adobe Illustrator 27.1.0, SVG Export Plug-In . SVG Version: 6.00 Build 0)  -->
<svg version="1.1" id="Layer_1" xmlns="http://www.w3.org/2000/svg" xmlns:xlink="http://www.w3.org/1999/xlink" x="0px" y="0px"
	 viewBox="0 0 24 24" enable-background="new 0 0 24 24" xml:space="preserve">
<g>
	<g>
		<path d="M16.3,17.07c0.42,0,0.77-0.15,1.06-0.46c0.29-0.3,0.43-0.67,0.43-1.08c0-0.42-0.15-0.77-0.45-1.06
			c-0.3-0.29-0.65-0.43-1.05-0.43c-0.42,0-0.78,0.14-1.08,0.43c-0.3,0.29-0.46,0.64-0.46,1.06s0.15,0.78,0.46,1.08
			C15.52,16.91,15.88,17.07,16.3,17.07z M16.27,20.07c0.53,0,1.01-0.11,1.44-0.32c0.43-0.22,0.8-0.53,1.11-0.95
			c-0.42-0.22-0.83-0.4-1.25-0.52c-0.42-0.12-0.85-0.18-1.3-0.18s-0.89,0.06-1.31,0.18c-0.43,0.12-0.84,0.29-1.24,0.52
			c0.3,0.42,0.67,0.73,1.1,0.95C15.24,19.97,15.73,20.07,16.27,20.07z M16.32,21.64c-1.25,0-2.32-0.45-3.2-1.34
			c-0.88-0.89-1.32-1.95-1.32-3.16c0-1.25,0.44-2.32,1.32-3.21c0.88-0.89,1.95-1.34,3.2-1.34c1.24,0,2.3,0.45,3.19,1.34
			c0.89,0.89,1.34,1.96,1.34,3.21c0,1.22-0.45,2.27-1.34,3.16C18.62,21.19,17.56,21.64,16.32,21.64z M11.19,22
			c-2.31-0.55-4.23-1.85-5.75-3.91S3.16,13.66,3.16,11V5.01L11.19,2l8.06,3.01v6.93c-0.47-0.24-0.94-0.43-1.42-0.58
			c-0.48-0.14-0.99-0.22-1.52-0.22c-1.65,0-3.06,0.59-4.22,1.76c-1.16,1.17-1.74,2.58-1.74,4.24c0,0.82,0.18,1.62,0.54,2.42
			c0.36,0.79,0.88,1.47,1.55,2.03c-0.21,0.1-0.42,0.17-0.64,0.23S11.39,21.94,11.19,22z"/>
	</g>
</g>
</svg>
