<?xml version="1.0" encoding="iso-8859-1"?>
<!-- Generator: Adobe Illustrator 27.1.0, SVG Export Plug-In . SVG Version: 6.00 Build 0)  -->
<svg version="1.1" id="Layer_1" xmlns="http://www.w3.org/2000/svg" xmlns:xlink="http://www.w3.org/1999/xlink" x="0px" y="0px"
	 viewBox="0 0 24 24" enable-background="new 0 0 24 24" xml:space="preserve">
<g>
	<g>
		<path d="M10.73,14.97c0.02-1.22,0.16-2.11,0.43-2.68c0.27-0.57,0.73-1.12,1.4-1.66c0.61-0.51,1.07-1,1.37-1.46
			c0.3-0.47,0.45-0.97,0.45-1.53c0-0.62-0.21-1.13-0.62-1.54c-0.41-0.41-0.98-0.62-1.7-0.62c-0.74,0-1.32,0.21-1.74,0.62
			c-0.43,0.41-0.74,0.9-0.93,1.45L7.02,6.51C7.39,5.5,8.01,4.67,8.86,4c0.85-0.67,1.92-1,3.19-1c1.58,0,2.79,0.45,3.65,1.34
			s1.28,1.97,1.28,3.23c0,0.83-0.16,1.56-0.47,2.19c-0.31,0.64-0.81,1.26-1.48,1.88c-0.72,0.65-1.16,1.16-1.32,1.54
			c-0.16,0.38-0.24,0.98-0.24,1.79H10.73z M12.06,21c-0.52,0-0.97-0.18-1.33-0.55c-0.36-0.37-0.54-0.81-0.54-1.32
			c0-0.51,0.18-0.95,0.54-1.32c0.36-0.37,0.8-0.55,1.33-0.55s0.97,0.18,1.33,0.55c0.36,0.37,0.54,0.81,0.54,1.32
			c0,0.51-0.18,0.95-0.55,1.32C13.01,20.82,12.57,21,12.06,21z"/>
	</g>
</g>
</svg>
