<?xml version="1.0" encoding="iso-8859-1"?>
<!-- Generator: Adobe Illustrator 27.1.0, SVG Export Plug-In . SVG Version: 6.00 Build 0)  -->
<svg version="1.1" id="Layer_1" xmlns="http://www.w3.org/2000/svg" xmlns:xlink="http://www.w3.org/1999/xlink" x="0px" y="0px"
	 viewBox="0 0 24 24" enable-background="new 0 0 24 24" xml:space="preserve">
<g>
	<g>
		<path d="M12.06,17.63c0.27,0,0.51-0.1,0.71-0.3s0.3-0.45,0.3-0.74c0-0.27-0.1-0.51-0.3-0.71s-0.44-0.3-0.71-0.3
			c-0.29,0-0.53,0.1-0.74,0.3s-0.3,0.44-0.3,0.71c0,0.29,0.1,0.53,0.3,0.74S11.77,17.63,12.06,17.63z M11.1,14.11h1.64
			c0-0.4,0.05-0.78,0.16-1.12s0.41-0.74,0.93-1.17c0.48-0.37,0.82-0.76,1.03-1.18c0.2-0.42,0.3-0.88,0.3-1.38
			c0-0.87-0.27-1.57-0.81-2.1s-1.27-0.8-2.18-0.8c-0.82,0-1.55,0.21-2.18,0.64c-0.64,0.43-1.1,1.01-1.39,1.75l1.5,0.55
			c0.19-0.47,0.46-0.82,0.8-1.06c0.34-0.24,0.72-0.36,1.16-0.36c0.45,0,0.83,0.13,1.13,0.4c0.31,0.27,0.46,0.61,0.46,1.03
			c0,0.32-0.1,0.64-0.29,0.94s-0.47,0.6-0.82,0.89c-0.47,0.4-0.82,0.82-1.06,1.25C11.22,12.83,11.1,13.4,11.1,14.11z M11.99,22
			c-1.37,0-2.66-0.26-3.87-0.78c-1.21-0.52-2.28-1.24-3.18-2.15c-0.91-0.91-1.62-1.97-2.15-3.17S2,13.4,2,12.01s0.26-2.68,0.78-3.9
			s1.23-2.27,2.14-3.17S6.88,3.33,8.09,2.8S10.6,2,11.99,2s2.69,0.27,3.91,0.8s2.28,1.24,3.17,2.14c0.89,0.89,1.6,1.95,2.14,3.16
			s0.8,2.52,0.8,3.92c0,1.38-0.27,2.68-0.8,3.9s-1.25,2.27-2.15,3.17c-0.9,0.9-1.95,1.61-3.16,2.14S13.39,22,11.99,22z"/>
	</g>
</g>
</svg>
