<?xml version="1.0" encoding="utf-8"?>
<!-- Generator: Adobe Illustrator 27.1.0, SVG Export Plug-In . SVG Version: 6.00 Build 0)  -->
<svg version="1.1" id="Layer_1" xmlns="http://www.w3.org/2000/svg" xmlns:xlink="http://www.w3.org/1999/xlink" x="0px" y="0px"
	 viewBox="0 0 24 24" enable-background="new 0 0 24 24" xml:space="preserve">
<g>
	<g>
		<path d="M5.59,4.8c-0.2,0-0.37,0.07-0.51,0.21S4.88,5.32,4.88,5.52c0,0.2,0.07,0.37,0.21,0.51c0.14,0.14,0.31,0.21,0.51,0.21
			c0.2,0,0.37-0.07,0.51-0.21c0.14-0.14,0.21-0.31,0.21-0.51S6.24,5.15,6.1,5.01C5.96,4.87,5.79,4.8,5.59,4.8z M3.62,2.84h16.74
			c0.19,0,0.35,0.06,0.47,0.19S21,3.31,21,3.5v3.94c0,0.22-0.06,0.4-0.18,0.54S20.55,8.2,20.36,8.2H3.62
			c-0.18,0-0.33-0.07-0.44-0.21S3,7.66,3,7.44V3.5c0-0.19,0.06-0.35,0.17-0.47S3.43,2.84,3.62,2.84z"/>
		<path d="M5.59,11.2c-0.2,0-0.37,0.07-0.51,0.21s-0.21,0.31-0.21,0.51c0,0.2,0.07,0.37,0.21,0.51s0.31,0.21,0.51,0.21
			c0.2,0,0.37-0.07,0.51-0.21c0.14-0.14,0.21-0.31,0.21-0.51c0-0.2-0.07-0.37-0.21-0.51S5.79,11.2,5.59,11.2z M3.62,9.24h16.74
			c0.19,0,0.35,0.06,0.47,0.19S21,9.71,21,9.9v3.94c0,0.22-0.06,0.4-0.18,0.54c-0.12,0.14-0.27,0.21-0.47,0.21H3.62
			c-0.18,0-0.33-0.07-0.44-0.21C3.06,14.24,3,14.06,3,13.84V9.9c0-0.19,0.06-0.35,0.17-0.47S3.43,9.24,3.62,9.24z"/>
		<path d="M5.59,17.77c-0.2,0-0.37,0.07-0.51,0.21c-0.14,0.14-0.21,0.31-0.21,0.51c0,0.2,0.07,0.37,0.21,0.51s0.31,0.21,0.51,0.21
			c0.2,0,0.37-0.07,0.51-0.21c0.14-0.14,0.21-0.31,0.21-0.51s-0.07-0.37-0.21-0.51S5.79,17.77,5.59,17.77z M3.62,15.8h16.74
			c0.19,0,0.35,0.06,0.47,0.19S21,16.27,21,16.46v3.94c0,0.22-0.06,0.4-0.18,0.54s-0.27,0.21-0.47,0.21H3.62
			c-0.18,0-0.33-0.07-0.44-0.21S3,20.62,3,20.4v-3.94c0-0.19,0.06-0.35,0.17-0.47S3.43,15.8,3.62,15.8z"/>
	</g>
</g>
</svg>
