<?xml version="1.0" encoding="utf-8"?>
<!-- Generator: Adobe Illustrator 27.1.0, SVG Export Plug-In . SVG Version: 6.00 Build 0)  -->
<svg version="1.1" id="Layer_1" xmlns="http://www.w3.org/2000/svg" xmlns:xlink="http://www.w3.org/1999/xlink" x="0px" y="0px"
	 viewBox="0 0 24 24" enable-background="new 0 0 24 24" xml:space="preserve">
<g>
	<g>
		<g>
			<g id="_x34_HaZLO.tif_00000096029044741586864730000001285392821212039299_">
				<g>
					<path d="M10.87,2c0.75,0,1.51,0,2.26,0c0.02,0.01,0.05,0.03,0.07,0.03c0.56,0.14,0.88,0.51,0.97,1.07
						c0.07,0.46,0.12,0.93,0.17,1.39c0.01,0.12,0.05,0.18,0.17,0.22c0.29,0.11,0.58,0.23,0.86,0.36c0.11,0.05,0.17,0.04,0.26-0.03
						c0.35-0.28,0.71-0.55,1.06-0.83c0.59-0.45,1.22-0.42,1.75,0.1c0.41,0.4,0.81,0.81,1.21,1.21c0.52,0.53,0.56,1.17,0.11,1.76
						c-0.28,0.36-0.55,0.72-0.84,1.08c-0.07,0.08-0.07,0.15-0.03,0.24c0.12,0.28,0.25,0.56,0.35,0.85c0.05,0.14,0.13,0.18,0.27,0.2
						c0.48,0.05,0.95,0.11,1.43,0.19c0.61,0.1,1.02,0.6,1.03,1.22c0.01,0.62,0.01,1.25,0,1.87c-0.01,0.62-0.42,1.12-1.03,1.22
						c-0.48,0.08-0.96,0.13-1.45,0.19c-0.12,0.01-0.19,0.05-0.24,0.18c-0.11,0.29-0.23,0.58-0.36,0.86
						c-0.04,0.1-0.04,0.16,0.03,0.24c0.28,0.35,0.55,0.71,0.83,1.06c0.46,0.6,0.43,1.24-0.1,1.77c-0.41,0.41-0.81,0.82-1.23,1.23
						c-0.51,0.5-1.15,0.54-1.72,0.1c-0.36-0.28-0.72-0.56-1.08-0.84c-0.09-0.07-0.15-0.08-0.26-0.03c-0.28,0.13-0.57,0.25-0.86,0.36
						c-0.1,0.04-0.16,0.09-0.17,0.2c-0.04,0.35-0.08,0.7-0.13,1.05c-0.05,0.35-0.07,0.71-0.32,1.01c-0.2,0.25-0.47,0.37-0.77,0.46
						c-0.75,0-1.51,0-2.26,0c-0.02-0.01-0.05-0.03-0.07-0.03c-0.56-0.15-0.88-0.51-0.97-1.07c-0.07-0.46-0.12-0.92-0.17-1.37
						c-0.01-0.13-0.06-0.2-0.19-0.25c-0.28-0.1-0.56-0.22-0.83-0.34c-0.11-0.05-0.18-0.05-0.28,0.03c-0.35,0.29-0.71,0.56-1.08,0.84
						c-0.57,0.44-1.21,0.4-1.72-0.11c-0.42-0.41-0.83-0.83-1.24-1.24c-0.5-0.51-0.54-1.15-0.1-1.73c0.28-0.37,0.57-0.73,0.84-1.1
						c0.04-0.05,0.05-0.16,0.03-0.22c-0.11-0.3-0.24-0.6-0.37-0.9c-0.03-0.07-0.12-0.14-0.19-0.15c-0.44-0.07-0.89-0.12-1.33-0.17
						c-0.35-0.04-0.67-0.16-0.88-0.45c-0.13-0.18-0.2-0.4-0.3-0.6c0-0.77,0-1.54,0-2.3c0.01-0.02,0.03-0.04,0.04-0.06
						C2.22,10.2,2.6,9.9,3.17,9.82C3.61,9.76,4.06,9.7,4.5,9.66c0.13-0.01,0.19-0.06,0.23-0.18C4.84,9.19,4.96,8.9,5.09,8.63
						c0.05-0.11,0.04-0.18-0.04-0.28C4.77,7.99,4.49,7.64,4.21,7.27C3.78,6.7,3.82,6.06,4.33,5.55c0.41-0.41,0.82-0.82,1.23-1.23
						C6.07,3.8,6.71,3.76,7.29,4.21c0.37,0.28,0.73,0.57,1.1,0.84c0.05,0.04,0.14,0.05,0.2,0.03C8.9,4.97,9.21,4.84,9.52,4.7
						c0.06-0.03,0.12-0.1,0.13-0.16C9.7,4.19,9.73,3.85,9.78,3.51c0.04-0.34,0.06-0.69,0.27-0.98C10.26,2.24,10.54,2.09,10.87,2z
						 M16.16,11.87c-0.1-2.32-2.02-4.13-4.27-4.04c-2.32,0.1-4.14,2.02-4.04,4.29c0.1,2.31,2.03,4.14,4.27,4.04
						C14.44,16.07,16.26,14.14,16.16,11.87z"/>
				</g>
			</g>
		</g>
	</g>
</g>
</svg>
