<?xml version="1.0" encoding="iso-8859-1"?>
<!-- Generator: Adobe Illustrator 27.1.0, SVG Export Plug-In . SVG Version: 6.00 Build 0)  -->
<svg version="1.1" id="Layer_1" xmlns="http://www.w3.org/2000/svg" xmlns:xlink="http://www.w3.org/1999/xlink" x="0px" y="0px"
	 viewBox="0 0 24 24" enable-background="new 0 0 24 24" xml:space="preserve">
<g>
	<g>
		<path d="M17.97,22c-0.86,0-1.58-0.3-2.18-0.91c-0.6-0.61-0.9-1.33-0.9-2.17c0-0.11,0.01-0.25,0.04-0.41
			c0.02-0.16,0.06-0.31,0.11-0.46l-6.83-3.97c-0.27,0.29-0.61,0.53-0.99,0.71c-0.39,0.19-0.78,0.28-1.19,0.28
			c-0.86,0-1.58-0.3-2.18-0.9s-0.9-1.32-0.9-2.18c0-0.86,0.3-1.58,0.9-2.18c0.6-0.6,1.32-0.9,2.18-0.9c0.4,0,0.79,0.08,1.16,0.24
			C7.56,9.33,7.9,9.55,8.21,9.85l6.83-3.92c-0.05-0.11-0.08-0.25-0.11-0.41c-0.02-0.16-0.04-0.31-0.04-0.44
			c0-0.86,0.3-1.58,0.9-2.18S17.11,2,17.97,2c0.86,0,1.58,0.3,2.18,0.9s0.9,1.32,0.9,2.18s-0.3,1.58-0.9,2.18s-1.32,0.9-2.18,0.9
			c-0.42,0-0.82-0.06-1.19-0.19c-0.37-0.13-0.69-0.34-0.94-0.63l-6.85,3.75c0.05,0.13,0.08,0.29,0.1,0.47
			C9.1,11.74,9.11,11.89,9.11,12c0,0.11-0.01,0.24-0.02,0.38s-0.05,0.28-0.1,0.42l6.85,3.85c0.26-0.24,0.56-0.44,0.92-0.58
			c0.36-0.15,0.76-0.22,1.21-0.22c0.86,0,1.58,0.3,2.18,0.9s0.9,1.32,0.9,2.18c0,0.86-0.3,1.58-0.9,2.18S18.82,22,17.97,22z"/>
	</g>
</g>
</svg>
