<?xml version="1.0" encoding="iso-8859-1"?>
<!-- Generator: Adobe Illustrator 27.1.0, SVG Export Plug-In . SVG Version: 6.00 Build 0)  -->
<svg version="1.1" id="Layer_1" xmlns="http://www.w3.org/2000/svg" xmlns:xlink="http://www.w3.org/1999/xlink" x="0px" y="0px"
	 viewBox="0 0 24 24" enable-background="new 0 0 24 24" xml:space="preserve">
<g>
	<g>
		<path d="M11.99,22c-2.35-0.59-4.27-1.95-5.78-4.06c-1.51-2.11-2.27-4.43-2.27-6.95V5.01L11.99,2l8.07,3.01v5.98
			c0,2.52-0.76,4.84-2.28,6.95C16.27,20.05,14.33,21.41,11.99,22z M11.99,20.02c1.65-0.59,3.03-1.62,4.13-3.08
			c1.1-1.46,1.75-3.11,1.94-4.94h-6.07V4.07L5.84,6.36v4.63c0,0.18,0,0.34,0.01,0.49c0.01,0.15,0.03,0.33,0.06,0.52h6.07V20.02z"/>
	</g>
</g>
</svg>
