<?xml version="1.0" encoding="iso-8859-1"?>
<!-- Generator: Adobe Illustrator 27.1.0, SVG Export Plug-In . SVG Version: 6.00 Build 0)  -->
<svg version="1.1" id="Layer_1" xmlns="http://www.w3.org/2000/svg" xmlns:xlink="http://www.w3.org/1999/xlink" x="0px" y="0px"
	 viewBox="0 0 24 24" enable-background="new 0 0 24 24" xml:space="preserve">
<g>
	<g>
		<g id="qBvVvC.tif_00000108988406697218682510000015368333445519174049_">
			<g>
				<path d="M21.54,7.32c-0.17,0.37-0.46,0.47-0.85,0.47C14.94,7.78,9.19,7.79,3.44,7.78c-0.18,0-0.37-0.01-0.55-0.05
					c-0.24-0.05-0.41-0.2-0.41-0.45C2.47,6.71,2.43,6.13,2.51,5.56c0.12-0.92,0.91-1.57,1.84-1.58c1.19-0.01,2.39-0.01,3.58,0
					c0.17,0,0.25-0.05,0.3-0.21c0.1-0.33,0.21-0.66,0.32-0.98c0.24-0.71,0.73-1.16,1.47-1.32c0.03-0.01,0.05-0.02,0.07-0.04
					c1.27,0,2.54,0,3.82,0c0.02,0.01,0.05,0.03,0.07,0.04c0.74,0.16,1.23,0.6,1.47,1.32c0.11,0.33,0.23,0.67,0.33,1
					c0.04,0.15,0.11,0.19,0.27,0.19c1.19-0.01,2.39-0.01,3.58,0c0.82,0.01,1.41,0.41,1.75,1.15c0.07,0.16,0.11,0.33,0.16,0.5
					C21.54,6.19,21.54,6.75,21.54,7.32z M9.49,3.96c1.68,0,3.34,0,5.01,0c-0.1-0.3-0.19-0.58-0.29-0.85c-0.1-0.26-0.3-0.4-0.57-0.4
					c-1.09-0.01-2.19-0.01-3.28,0c-0.27,0-0.47,0.14-0.57,0.4C9.68,3.38,9.6,3.66,9.49,3.96z"/>
				<path d="M3.9,8.59c5.41,0,10.79,0,16.2,0c0,0.07,0,0.14,0,0.21c-0.12,1.44-0.24,2.89-0.36,4.33c-0.11,1.27-0.21,2.55-0.32,3.82
					c-0.11,1.32-0.21,2.63-0.34,3.95c-0.1,0.99-0.9,1.68-1.91,1.68c-2.59,0-5.17,0-7.76,0c-0.82,0-1.64,0-2.46,0
					c-1.2,0-1.97-0.69-2.07-1.89c-0.19-2.31-0.38-4.62-0.57-6.93c-0.13-1.62-0.27-3.24-0.41-4.86C3.91,8.8,3.9,8.71,3.9,8.59z
					 M8.82,14.94c0-1.46,0-2.92,0-4.38c0-0.44-0.25-0.71-0.64-0.7c-0.39,0.01-0.63,0.27-0.63,0.69c0,2.92,0,5.85,0,8.77
					c0,0.05,0,0.1,0,0.15c0.03,0.26,0.18,0.44,0.43,0.52c0.45,0.14,0.84-0.15,0.84-0.64C8.82,17.88,8.82,16.41,8.82,14.94z
					 M12.64,14.94c0-1.46,0-2.92,0-4.38c0-0.44-0.25-0.71-0.64-0.7c-0.39,0.01-0.63,0.27-0.63,0.69c0,2.92,0,5.85,0,8.77
					c0,0.05,0,0.1,0,0.15c0.03,0.26,0.18,0.44,0.43,0.52c0.45,0.14,0.84-0.15,0.84-0.64C12.64,17.88,12.64,16.41,12.64,14.94z
					 M16.45,14.96c0-1.13,0-2.26,0-3.39c0-0.37,0.01-0.73,0-1.1c-0.01-0.33-0.27-0.59-0.59-0.61c-0.31-0.02-0.6,0.2-0.66,0.51
					c-0.02,0.08-0.01,0.17-0.01,0.25c0,2.88,0,5.76,0,8.65c0,0.07,0,0.14,0,0.21c0.03,0.25,0.17,0.43,0.42,0.51
					c0.45,0.15,0.85-0.14,0.85-0.62C16.45,17.89,16.45,16.43,16.45,14.96z"/>
			</g>
		</g>
	</g>
</g>
</svg>
