<?xml version="1.0" encoding="iso-8859-1"?>
<!-- Generator: Adobe Illustrator 27.1.0, SVG Export Plug-In . SVG Version: 6.00 Build 0)  -->
<svg version="1.1" id="Layer_1" xmlns="http://www.w3.org/2000/svg" xmlns:xlink="http://www.w3.org/1999/xlink" x="0px" y="0px"
	 viewBox="0 0 24 24" enable-background="new 0 0 24 24" xml:space="preserve">
<g>
	<g>
		<path d="M5.81,17.3c1.01-0.64,2.01-1.12,2.99-1.44c0.98-0.31,2.04-0.47,3.18-0.47s2.21,0.16,3.21,0.48s1.99,0.8,2.99,1.42
			c0.69-0.88,1.18-1.75,1.46-2.59c0.28-0.84,0.42-1.74,0.42-2.69c0-2.28-0.78-4.2-2.33-5.75s-3.47-2.33-5.75-2.33
			s-4.2,0.78-5.75,2.33s-2.33,3.47-2.33,5.75c0,0.95,0.14,1.85,0.43,2.69C4.63,15.55,5.12,16.41,5.81,17.3z M11.99,12.83
			c-0.97,0-1.77-0.33-2.41-0.98c-0.64-0.65-0.97-1.45-0.97-2.4c0-0.97,0.33-1.77,0.98-2.42c0.65-0.65,1.45-0.98,2.4-0.98
			c0.97,0,1.77,0.33,2.41,0.99s0.97,1.46,0.97,2.41c0,0.95-0.33,1.75-0.98,2.4C13.74,12.51,12.94,12.83,11.99,12.83z M11.99,22
			c-1.38,0-2.68-0.26-3.9-0.78s-2.28-1.24-3.18-2.15C4,18.16,3.29,17.1,2.77,15.88S2,13.38,2,12.01c0-1.38,0.26-2.68,0.78-3.9
			s1.24-2.27,2.15-3.17S6.9,3.33,8.12,2.8C9.33,2.27,10.63,2,12.01,2c1.37,0,2.66,0.27,3.87,0.8s2.27,1.25,3.17,2.15
			c0.9,0.9,1.62,1.96,2.15,3.17c0.53,1.21,0.8,2.51,0.8,3.9c0,1.37-0.27,2.66-0.8,3.87s-1.25,2.28-2.15,3.18
			c-0.9,0.91-1.96,1.62-3.17,2.15S13.37,22,11.99,22z"/>
	</g>
</g>
</svg>
