<?xml version="1.0" encoding="iso-8859-1"?>
<!-- Generator: Adobe Illustrator 27.1.0, SVG Export Plug-In . SVG Version: 6.00 Build 0)  -->
<svg version="1.1" id="Layer_1" xmlns="http://www.w3.org/2000/svg" xmlns:xlink="http://www.w3.org/1999/xlink" x="0px" y="0px"
	 viewBox="0 0 24 24" enable-background="new 0 0 24 24" xml:space="preserve">
<g>
	<g>
		<path d="M6.09,8.5h8.61V6.58c0-0.77-0.26-1.42-0.79-1.96s-1.17-0.8-1.92-0.8c-0.76,0-1.4,0.27-1.92,0.8
			C9.54,5.16,9.28,5.81,9.28,6.58H7.45c0-1.28,0.44-2.36,1.32-3.25S10.72,2,11.99,2c1.27,0,2.34,0.44,3.22,1.33
			c0.88,0.89,1.32,1.97,1.32,3.25V8.5h1.37c0.51,0,0.95,0.18,1.31,0.54s0.54,0.8,0.54,1.31v9.81c0,0.49-0.18,0.92-0.54,1.28
			C18.84,21.82,18.4,22,17.89,22H6.09c-0.51,0-0.94-0.18-1.3-0.54s-0.53-0.79-0.53-1.28v-9.81c0-0.51,0.18-0.95,0.53-1.31
			S5.58,8.5,6.09,8.5z M11.99,17.05c0.49,0,0.91-0.17,1.26-0.51c0.35-0.34,0.52-0.75,0.52-1.23c0-0.46-0.17-0.88-0.52-1.26
			s-0.77-0.57-1.26-0.57c-0.49,0-0.91,0.19-1.26,0.57c-0.35,0.38-0.52,0.8-0.52,1.26c0,0.48,0.17,0.89,0.52,1.23
			C11.07,16.88,11.49,17.05,11.99,17.05z"/>
	</g>
</g>
</svg>
