<?xml version="1.0" encoding="iso-8859-1"?>
<!-- Generator: Adobe Illustrator 27.1.0, SVG Export Plug-In . SVG Version: 6.00 Build 0)  -->
<svg version="1.1" id="Layer_1" xmlns="http://www.w3.org/2000/svg" xmlns:xlink="http://www.w3.org/1999/xlink" x="0px" y="0px"
	 viewBox="0 0 24 24" enable-background="new 0 0 24 24" xml:space="preserve">
<g>
	<g>
		<path d="M15.52,14.02c-0.95,0-1.74-0.32-2.37-0.96c-0.63-0.64-0.94-1.43-0.94-2.39c0-0.97,0.32-1.77,0.96-2.4
			c0.64-0.63,1.43-0.94,2.39-0.94c0.95,0,1.75,0.32,2.39,0.96c0.64,0.64,0.96,1.43,0.96,2.39c0,0.97-0.32,1.77-0.96,2.4
			C17.29,13.7,16.49,14.02,15.52,14.02z M9.09,20.88v-2.02c0-0.37,0.09-0.73,0.27-1.07c0.18-0.34,0.42-0.59,0.73-0.74
			c0.8-0.56,1.67-0.98,2.6-1.25c0.94-0.27,1.89-0.41,2.86-0.41c0.95,0,1.9,0.15,2.83,0.45c0.94,0.3,1.8,0.7,2.6,1.21
			c0.29,0.2,0.53,0.46,0.73,0.78c0.2,0.31,0.29,0.66,0.29,1.03v2.02L9.09,20.88z M2,14.24V12.2h7.76v2.04H2z M2,5.14V3.12h11.91
			v2.02L2,5.14z M10.8,9.68H2V7.66h9.64c-0.2,0.29-0.38,0.6-0.52,0.94C10.98,8.95,10.87,9.3,10.8,9.68z"/>
	</g>
</g>
</svg>
