<?xml version="1.0" encoding="iso-8859-1"?>
<!-- Generator: Adobe Illustrator 27.1.0, SVG Export Plug-In . SVG Version: 6.00 Build 0)  -->
<svg version="1.1" id="Layer_1" xmlns="http://www.w3.org/2000/svg" xmlns:xlink="http://www.w3.org/1999/xlink" x="0px" y="0px"
	 viewBox="0 0 24 24" enable-background="new 0 0 24 24" xml:space="preserve">
<g>
	<g>
		<path d="M16.64,20.62l-0.24-1.64c-0.26-0.06-0.51-0.17-0.77-0.31c-0.26-0.14-0.47-0.31-0.65-0.48l-1.4,0.31l-0.72-1.25l1.18-1.09
			c-0.03-0.11-0.05-0.29-0.05-0.54c0-0.25,0.02-0.42,0.05-0.52l-1.18-1.11l0.72-1.23l1.4,0.31c0.18-0.18,0.39-0.34,0.65-0.49
			s0.51-0.26,0.77-0.33l0.24-1.64h1.57l0.27,1.64c0.24,0.06,0.49,0.17,0.76,0.33c0.27,0.15,0.49,0.32,0.66,0.49l1.38-0.31L22,13.99
			l-1.18,1.11c0.05,0.11,0.07,0.29,0.07,0.53c0,0.24-0.02,0.42-0.07,0.53L22,17.25l-0.72,1.25l-1.38-0.31
			c-0.18,0.18-0.4,0.34-0.66,0.48s-0.52,0.25-0.76,0.31l-0.27,1.64L16.64,20.62z M2,19.73V17.1c0-0.66,0.17-1.24,0.52-1.74
			c0.35-0.5,0.78-0.87,1.31-1.11c1.16-0.51,2.26-0.89,3.29-1.12c1.04-0.23,2.01-0.35,2.93-0.35h0.77c-0.48,0.95-0.7,2.15-0.66,3.61
			c0.04,1.46,0.4,2.57,1.07,3.34H2z M17.44,17.49c0.55,0,0.99-0.17,1.33-0.52c0.34-0.35,0.51-0.8,0.51-1.36
			c0-0.55-0.17-0.99-0.51-1.33c-0.34-0.34-0.78-0.51-1.33-0.51c-0.55,0-0.99,0.17-1.34,0.51c-0.35,0.34-0.52,0.78-0.52,1.33
			c0,0.56,0.17,1.02,0.52,1.36C16.45,17.32,16.89,17.49,17.44,17.49z M10.06,11.31c-1.16,0-2.11-0.37-2.85-1.11
			C6.47,9.46,6.1,8.51,6.1,7.36c0-1.17,0.37-2.13,1.11-2.87s1.69-1.11,2.85-1.11s2.11,0.37,2.86,1.11c0.75,0.74,1.12,1.7,1.12,2.87
			c0,1.16-0.37,2.11-1.12,2.85C12.17,10.94,11.22,11.31,10.06,11.31z"/>
	</g>
</g>
</svg>
