<?xml version="1.0" encoding="iso-8859-1"?>
<!-- Generator: Adobe Illustrator 27.1.0, SVG Export Plug-In . SVG Version: 6.00 Build 0)  -->
<svg version="1.1" id="Layer_1" xmlns="http://www.w3.org/2000/svg" xmlns:xlink="http://www.w3.org/1999/xlink" x="0px" y="0px"
	 viewBox="0 0 24 24" enable-background="new 0 0 24 24" xml:space="preserve">
<g>
	<g>
		<path d="M2,19.29v-2.4c0-0.57,0.15-1.09,0.44-1.55c0.29-0.46,0.7-0.81,1.23-1.04c1.08-0.47,2.07-0.81,2.95-1.02
			c0.88-0.21,1.79-0.32,2.73-0.32c0.95,0,1.86,0.1,2.74,0.31c0.87,0.21,1.85,0.55,2.93,1.03c0.51,0.22,0.92,0.56,1.23,1.02
			c0.31,0.46,0.46,0.99,0.46,1.57v2.4H2z M18.15,19.29v-2.37c0-0.94-0.23-1.72-0.69-2.34c-0.46-0.62-1.09-1.17-1.88-1.64
			c0.95,0.13,1.85,0.31,2.69,0.53c0.84,0.22,1.53,0.47,2.05,0.75c0.51,0.28,0.92,0.66,1.22,1.13c0.3,0.48,0.45,1.01,0.45,1.62v2.33
			H18.15z M9.34,11.62c-1.01,0-1.84-0.32-2.48-0.97S5.89,9.18,5.89,8.16c0-1.03,0.32-1.86,0.97-2.49s1.47-0.96,2.48-0.96
			c1.03,0,1.86,0.32,2.49,0.96c0.64,0.64,0.96,1.46,0.96,2.47c0,1.03-0.32,1.86-0.96,2.51C11.2,11.29,10.37,11.62,9.34,11.62z
			 M17.71,8.14c0,1.03-0.32,1.86-0.97,2.51c-0.64,0.64-1.47,0.97-2.48,0.97c-0.18,0-0.36-0.01-0.55-0.04s-0.37-0.07-0.55-0.13
			c0.37-0.4,0.64-0.87,0.82-1.42s0.27-1.17,0.27-1.86c0-0.69-0.09-1.3-0.27-1.84s-0.46-1.01-0.82-1.44c0.16-0.06,0.34-0.1,0.54-0.13
			c0.2-0.03,0.38-0.04,0.56-0.04c1.01,0,1.84,0.32,2.48,0.97C17.39,6.33,17.71,7.15,17.71,8.14z"/>
	</g>
</g>
</svg>
