<?xml version="1.0" encoding="iso-8859-1"?>
<!-- Generator: Adobe Illustrator 27.1.0, SVG Export Plug-In . SVG Version: 6.00 Build 0)  -->
<svg version="1.1" id="Layer_1" xmlns="http://www.w3.org/2000/svg" xmlns:xlink="http://www.w3.org/1999/xlink" x="0px" y="0px"
	 viewBox="0 0 24 24" enable-background="new 0 0 24 24" xml:space="preserve">
<g>
	<g>
		<path d="M11.99,11.76c-1.13,0-2.06-0.36-2.78-1.09C8.48,9.95,8.12,9.03,8.12,7.89c0-1.15,0.36-2.08,1.09-2.81
			C9.93,4.36,10.86,4,11.99,4s2.06,0.36,2.8,1.09c0.73,0.72,1.1,1.66,1.1,2.81c0,1.13-0.37,2.06-1.1,2.78
			C14.05,11.4,13.12,11.76,11.99,11.76z M4.11,20v-2.57c0-0.65,0.17-1.21,0.5-1.69c0.33-0.48,0.76-0.85,1.3-1.1
			c1.07-0.49,2.1-0.85,3.09-1.09s1.99-0.35,3-0.35c1.02,0,2.03,0.12,3.01,0.37c0.98,0.24,2,0.6,3.06,1.07
			c0.55,0.24,1,0.59,1.33,1.07c0.34,0.48,0.51,1.05,0.51,1.71V20H4.11z"/>
	</g>
</g>
</svg>
