<?xml version="1.0" encoding="iso-8859-1"?>
<!-- Generator: Adobe Illustrator 27.1.0, SVG Export Plug-In . SVG Version: 6.00 Build 0)  -->
<svg version="1.1" id="Layer_1" xmlns="http://www.w3.org/2000/svg" xmlns:xlink="http://www.w3.org/1999/xlink" x="0px" y="0px"
	 viewBox="0 0 24 24" enable-background="new 0 0 24 24" xml:space="preserve">
<g>
	<g>
		<path d="M18.06,13.4v-2.97h-2.97V8.89h2.97V5.92h1.57v2.97h2.95v1.54h-2.95v2.97H18.06z M9.24,11.77c-1.12,0-2.04-0.36-2.76-1.08
			S5.4,9.05,5.4,7.93c0-1.14,0.36-2.07,1.08-2.78C7.2,4.43,8.12,4.07,9.24,4.07s2.05,0.36,2.77,1.08c0.73,0.72,1.09,1.65,1.09,2.78
			c0,1.12-0.36,2.04-1.09,2.76C11.29,11.41,10.36,11.77,9.24,11.77z M1.42,19.93v-2.55c0-0.61,0.16-1.16,0.47-1.65
			c0.31-0.49,0.75-0.86,1.31-1.11c1.19-0.53,2.25-0.9,3.18-1.11c0.94-0.21,1.89-0.32,2.85-0.32c0.98,0,1.94,0.11,2.87,0.32
			c0.93,0.21,1.99,0.58,3.17,1.11c0.56,0.25,1,0.62,1.32,1.1c0.32,0.48,0.48,1.04,0.48,1.66v2.55H1.42z"/>
	</g>
</g>
</svg>
