<?xml version="1.0" encoding="iso-8859-1"?>
<!-- Generator: Adobe Illustrator 27.1.0, SVG Export Plug-In . SVG Version: 6.00 Build 0)  -->
<svg version="1.1" id="Layer_1" xmlns="http://www.w3.org/2000/svg" xmlns:xlink="http://www.w3.org/1999/xlink" x="0px" y="0px"
	 viewBox="0 0 24 24" enable-background="new 0 0 24 24" xml:space="preserve">
<g>
	<g>
		<path d="M11.2,11.25h1.61V6.14H11.2V11.25z M12,14.48c0.23,0,0.42-0.08,0.57-0.24c0.15-0.16,0.23-0.35,0.23-0.56
			c0-0.23-0.08-0.42-0.23-0.57c-0.15-0.15-0.34-0.23-0.57-0.23c-0.21,0-0.4,0.08-0.56,0.23c-0.16,0.15-0.24,0.34-0.24,0.57
			c0,0.21,0.08,0.4,0.24,0.56C11.6,14.4,11.79,14.48,12,14.48z M12,22c-2.69-2.29-4.7-4.41-6.03-6.36s-2-3.76-2-5.41
			c0-2.5,0.81-4.49,2.42-5.99S9.88,2,12,2s3.99,0.75,5.61,2.24s2.42,3.49,2.42,5.99c0,1.65-0.67,3.46-2,5.41
			C16.7,17.59,14.69,19.71,12,22z"/>
	</g>
</g>
</svg>
