<?xml version="1.0" encoding="iso-8859-1"?>
<!-- Generator: Adobe Illustrator 27.1.0, SVG Export Plug-In . SVG Version: 6.00 Build 0)  -->
<svg version="1.1" id="Layer_1" xmlns="http://www.w3.org/2000/svg" xmlns:xlink="http://www.w3.org/1999/xlink" x="0px" y="0px"
	 viewBox="0 0 24 24" enable-background="new 0 0 24 24" xml:space="preserve">
<g>
	<g>
		<path d="M11.99,17.17c0.32,0,0.58-0.1,0.78-0.3c0.2-0.2,0.3-0.46,0.3-0.78c0-0.31-0.1-0.57-0.3-0.78
			c-0.2-0.22-0.46-0.33-0.78-0.33c-0.32,0-0.58,0.11-0.78,0.33c-0.2,0.22-0.3,0.48-0.3,0.78c0,0.32,0.1,0.58,0.3,0.78
			S11.67,17.17,11.99,17.17z M11.1,13.17h1.93V6.83H11.1V13.17z M11.99,22c-1.38,0-2.68-0.26-3.88-0.78s-2.26-1.24-3.17-2.15
			c-0.91-0.91-1.62-1.97-2.15-3.17S2,13.4,2,12.01c0-1.4,0.26-2.7,0.78-3.91s1.23-2.26,2.14-3.16S6.88,3.33,8.09,2.8S10.6,2,11.99,2
			c1.4,0,2.71,0.27,3.92,0.8c1.21,0.53,2.27,1.24,3.16,2.14s1.6,1.95,2.14,3.16s0.8,2.52,0.8,3.92c0,1.38-0.27,2.68-0.8,3.9
			s-1.25,2.27-2.15,3.17c-0.9,0.9-1.95,1.61-3.16,2.14S13.39,22,11.99,22z" style="fill: red;"/>
	</g>
</g>
</svg>
