<?xml version="1.0" encoding="utf-8"?>
<!-- Generator: Adobe Illustrator 27.1.0, SVG Export Plug-In . SVG Version: 6.00 Build 0)  -->
<svg version="1.1" id="Layer_1" xmlns="http://www.w3.org/2000/svg" xmlns:xlink="http://www.w3.org/1999/xlink" x="0px" y="0px"
	 viewBox="0 0 24 24" enable-background="new 0 0 24 24" xml:space="preserve">
<g>
	<g>
		<path d="M3.78,19.61c-0.47,0-0.88-0.18-1.24-0.54C2.18,18.71,2,18.29,2,17.83V6.19c0-0.48,0.18-0.9,0.54-1.26s0.77-0.54,1.24-0.54
			h6.09l1.49,1.49h7.53c0.48,0,0.9,0.18,1.26,0.54c0.36,0.36,0.54,0.78,0.54,1.26H3.78v10.19l2.3-8.84H22l-2.34,8.97
			c-0.17,0.57-0.43,0.98-0.79,1.23c-0.36,0.25-0.84,0.37-1.44,0.37H3.78z"/>
	</g>
</g>
</svg>
