<?xml version="1.0" encoding="iso-8859-1"?>
<!-- Generator: Adobe Illustrator 27.1.0, SVG Export Plug-In . SVG Version: 6.00 Build 0)  -->
<svg version="1.1" id="Layer_1" xmlns="http://www.w3.org/2000/svg" xmlns:xlink="http://www.w3.org/1999/xlink" x="0px" y="0px"
	 viewBox="0 0 24 24" enable-background="new 0 0 24 24" xml:space="preserve">
<g>
	<g>
		<g>
			<g id="pZyuAt.tif_00000173878090243451044590000017940503185982544048_">
				<g>
					<path d="M20.73,6.4c-0.09,0.38-0.33,0.65-0.6,0.91c-0.47,0.45-0.93,0.92-1.39,1.38c-0.04,0.04-0.09,0.09-0.12,0.12
						c-1.18-1.18-2.36-2.36-3.55-3.55c0.02-0.02,0.06-0.06,0.09-0.1c0.45-0.45,0.89-0.89,1.34-1.34c0.7-0.7,1.64-0.7,2.34,0
						c0.44,0.43,0.86,0.87,1.3,1.3c0.27,0.26,0.5,0.53,0.58,0.9C20.73,6.15,20.73,6.28,20.73,6.4z"/>
					<path d="M3.57,20.69c-0.3-0.19-0.35-0.28-0.27-0.63c0.28-1.27,0.57-2.53,0.85-3.8c0-0.02,0.01-0.04,0.01-0.03
						c1.16,1.16,2.33,2.33,3.5,3.49C7.35,19.81,7,19.89,6.65,19.98c-0.94,0.23-1.88,0.46-2.83,0.68c-0.03,0.01-0.05,0.02-0.08,0.03
						C3.69,20.69,3.63,20.69,3.57,20.69z"/>
					<path d="M8.66,18.71c-1.16-1.15-2.33-2.32-3.49-3.48c2.99-2.99,5.98-5.98,8.96-8.96c1.15,1.15,2.32,2.32,3.48,3.48
						C14.65,12.72,11.66,15.71,8.66,18.71z"/>
				</g>
			</g>
		</g>
	</g>
</g>
</svg>
